<?xml version="1.0" encoding="UTF-8" standalone="no"?>
<!-- Created with Inkscape (http://www.inkscape.org/) -->

<svg
   xmlns:dc="http://purl.org/dc/elements/1.1/"
   xmlns:cc="http://creativecommons.org/ns#"
   xmlns:rdf="http://www.w3.org/1999/02/22-rdf-syntax-ns#"
   xmlns:svg="http://www.w3.org/2000/svg"
   xmlns="http://www.w3.org/2000/svg"
   xmlns:sodipodi="http://sodipodi.sourceforge.net/DTD/sodipodi-0.dtd"
   xmlns:inkscape="http://www.inkscape.org/namespaces/inkscape"
   width="500"
   height="500"
   viewBox="0 0 132.29166 132.29167"
   version="1.1"
   id="svg8"
   inkscape:version="0.92.2 5c3e80d, 2017-08-06"
   sodipodi:docname="logo.svg"
   inkscape:export-filename="/Users/gervasio/Projects/BonfireUnread/images/icon16.png"
   inkscape:export-xdpi="24.58"
   inkscape:export-ydpi="24.58">
  <defs
     id="defs2" />
  <sodipodi:namedview
     id="base"
     pagecolor="#ffffff"
     bordercolor="#666666"
     borderopacity="1.0"
     inkscape:pageopacity="0.0"
     inkscape:pageshadow="2"
     inkscape:zoom="0.98994949"
     inkscape:cx="43.876624"
     inkscape:cy="174.46413"
     inkscape:document-units="mm"
     inkscape:current-layer="layer1"
     showgrid="false"
     units="px"
     inkscape:window-width="1920"
     inkscape:window-height="1076"
     inkscape:window-x="0"
     inkscape:window-y="0"
     inkscape:window-maximized="1" />
  <metadata
     id="metadata5">
    <rdf:RDF>
      <cc:Work
         rdf:about="">
        <dc:format>image/svg+xml</dc:format>
        <dc:type
           rdf:resource="http://purl.org/dc/dcmitype/StillImage" />
        <dc:title></dc:title>
      </cc:Work>
    </rdf:RDF>
  </metadata>
  <g
     inkscape:label="Layer 1"
     inkscape:groupmode="layer"
     id="layer1"
     transform="translate(0,-164.70832)">
    <path
       style="fill:none;fill-opacity:1;stroke-width:26.45833397;stroke-miterlimit:4;stroke-dasharray:none"
       id="path817"
       d="m 23.511777,197.08802 c -0.08105,1.97562 -0.08061,3.95066 0.0686,5.9223 0.250476,2.17133 0.437249,4.34864 0.570249,6.53008 0.0624,1.06315 0.115945,2.12845 0.114818,3.19369 0.0072,0.70654 0.0049,1.41336 9.79e-4,2.11994 -0.0033,0.75149 -0.0034,1.50299 -0.0035,2.25449 0.0017,0.84358 -0.0042,1.68704 -0.0086,2.5306 -0.01307,1.50151 -0.02994,3.00282 -0.03094,4.50442 -0.0575,1.9595 0.13731,3.91169 0.467326,5.84047 0.165713,1.30369 0.366893,2.60252 0.54258,3.90493 0.05832,0.67933 0.221162,1.34249 0.229457,2.02557 -0.0019,0.52597 -0.0416,1.05092 -0.04241,1.57677 -0.01343,0.54831 -0.01433,1.09676 -0.0185,1.64526 0.004,0.56145 -0.0025,1.12293 0.0061,1.6844 0.05137,0.52786 0.209507,1.03557 0.289823,1.56011 0.0678,0.40977 0.05654,0.82732 0.106381,1.23831 -0.06408,-0.10953 0.147666,0.47446 0.06978,0.37427 -0.05122,-0.0659 -0.178643,-0.29519 -0.02701,-0.31953 1.086474,-0.0279 2.176084,-0.001 3.263437,0.005 1.955167,0.22257 3.890129,0.59418 5.819118,0.98107 0.981925,0.19235 1.965495,0.39276 2.962947,0.48481 0.36679,0.0258 0.734185,0.0103 1.101461,0.0111 0.677725,-2.6e-4 1.355455,0.005 2.033166,0.003 0.945082,0.0666 1.868432,-0.0629 2.800078,-0.19825 1.04608,-0.0376 2.065798,-0.21876 3.098702,-0.36662 0.775348,-0.1289 1.55934,-0.16728 2.34342,-0.19328 0.463949,-0.0201 0.928277,-0.009 1.392489,-0.009 0.583745,0.001 1.167508,0.01 1.751285,0.009 0.817747,-10e-4 1.635484,0.007 2.453227,0.004 0.861208,-0.002 1.722406,-1e-5 2.583619,-5.3e-4 0.876721,-1.1e-4 1.753431,10e-4 2.630157,2.6e-4 0.91713,5.3e-4 1.834229,2.6e-4 2.751357,0.002 1.097542,0.009 2.195102,0.001 3.292655,0.002 0.868648,0.005 1.737288,-0.01 2.60591,-0.0102 0.376621,-0.0113 0.753473,-0.004 1.130088,-0.009 0.368099,2.7e-4 0.736309,0.006 1.104398,8e-4 0.448609,0.002 0.897241,0.004 1.345901,0.005 0.624816,-0.0388 1.223002,-0.0692 1.854983,-0.0482 0.769858,-0.1392 1.523793,-0.30439 2.306309,-0.34296 0.607589,-0.037 1.224386,0.07 1.823982,-0.0659 0.973016,-0.22048 -0.13281,-0.0651 0.957175,-0.18821 0.145706,-0.0177 0.295008,-0.0164 0.437116,-0.0531 0.138438,-0.0358 0.260389,-0.12025 0.397007,-0.16244 0.430223,-0.13287 0.87933,-0.15651 1.294313,-0.33416 2.127961,-1.01178 -5.878267,3.41949 -4.426543,2.53442 1.643163,-1.00178 3.341306,-1.91047 5.015323,-2.8598 0.07901,-0.0448 0.346207,-0.0963 0.267747,-0.0506 -1.553321,0.90603 -3.131854,1.76813 -4.69778,2.6522 0.234413,-0.231 0.29468,-0.18313 0.315563,-0.55965 -0.0079,-1.09506 0.06551,-2.18421 0.142394,-3.27608 0.207166,-2.20689 0.345345,-4.41845 0.524436,-6.62825 0.0027,-1.33887 0.240641,-2.65124 0.418798,-3.97145 0.04406,-0.36103 0.05448,-0.72551 0.04673,-1.08889 -2.65e-4,-0.60858 0.0013,-1.21721 0.0064,-1.82581 -0.0055,-0.86315 0.0028,-1.72617 -7.94e-4,-2.58933 0.0047,-0.92216 0.0066,-1.84442 -7.94e-4,-2.76656 0.0073,-0.85157 -0.0029,-1.7031 -0.0024,-2.5546 -0.0024,-0.65813 0.0049,-1.31656 -0.01238,-1.97447 0.0072,-0.47147 -0.0049,-0.94306 2.65e-4,-1.41443 -0.0041,-0.55586 -0.0061,-1.1112 0.04216,-1.66527 0.177676,-0.76544 0.335299,-1.53507 0.48818,-2.30605 0.245975,-0.80056 0.26338,-1.63277 0.266679,-2.46211 -0.0057,-0.7714 -0.01757,-1.54273 -0.02368,-2.31413 -0.0063,-0.66096 -0.0118,-1.32157 -0.0099,-1.98257 -0.0062,-0.61705 -0.0016,-1.23409 7.94e-4,-1.85122 -0.0057,-0.45213 -0.01095,-0.90425 -0.0122,-1.35642 -0.003,-0.14327 7.94e-4,-0.28624 -0.0052,-0.42943 0,0 5.034859,-2.56538 5.034859,-2.56538 v 0 c -0.0057,0.14495 -0.0024,0.28969 -0.0052,0.43473 -0.0013,0.45635 -0.0066,0.91264 -0.01236,1.36896 0.0021,0.61675 0.0066,1.23341 7.94e-4,1.85008 0.0026,0.66121 -0.0013,1.32216 5.29e-4,1.98335 0.0046,0.77325 0.01352,1.54645 0.0218,2.31966 0.0027,0.85456 0.03613,1.73656 -0.216532,2.56129 -0.155268,0.75923 -0.252598,1.53476 -0.505759,2.26425 -0.08245,0.52907 -0.04069,1.06003 -0.04826,1.59419 0.0053,0.47126 -0.0069,0.94274 2.65e-4,1.4141 -0.01696,0.66213 -0.01027,1.32475 -0.01238,1.98709 5.29e-4,0.85237 -0.0098,1.70476 -0.0026,2.55719 -0.0074,0.92243 -0.0057,1.84496 -0.0011,2.7674 -0.0036,0.86247 0.0043,1.7248 0.0021,2.58727 0.0079,0.59802 0.01064,1.19622 0.03174,1.79394 0.0089,0.39652 0.01042,0.79132 -0.04148,1.18594 -0.185655,1.33191 -0.571076,2.63872 -0.543554,3.99901 -0.119327,1.46865 -0.04716,0.72968 -0.217657,2.21678 -0.133176,1.46128 -0.07417,2.9343 -0.27912,4.38974 -0.07037,1.06532 -0.108315,2.12947 -0.04654,3.1964 0.0052,0.33522 0.116428,0.71435 -0.146391,0.93856 -1.661308,0.98558 -3.324479,1.96803 -4.983927,2.95674 -0.06593,0.0393 -0.266253,0.15285 -0.199964,0.11416 1.545587,-0.9021 6.238388,-3.50658 4.643863,-2.6941 -1.720453,0.87665 -3.339279,1.94012 -5.022175,2.88687 -0.07286,0.041 -0.159877,0.0489 -0.239813,0.0734 -0.716666,0.15377 -1.418487,0.37845 -2.149255,0.4563 -0.93762,0.17762 -1.866305,0.2185 -2.819681,0.23426 -0.78564,0.0882 -1.555853,0.30869 -2.350696,0.305 -0.621699,-0.006 -1.234889,0.0875 -1.857226,0.0648 -0.452983,10e-4 -0.905939,0.002 -1.358874,0.005 -0.3688,-0.005 -0.737735,5.3e-4 -1.106548,7.9e-4 -0.368229,-0.005 -0.736706,0.002 -1.10494,-0.009 -0.85925,-2.6e-4 -1.718527,-0.0154 -2.577809,-0.0102 -1.099733,0.001 -2.199476,-0.007 -3.299201,0.002 -0.919297,0.002 -1.838565,0.002 -2.757865,0.002 -0.877052,-7.9e-4 -1.754087,5.3e-4 -2.631133,2.7e-4 -0.860769,-5.3e-4 -1.721525,0.001 -2.582289,-5.3e-4 -0.821724,-0.003 -1.643449,0.006 -2.465178,0.004 -0.590407,-0.001 -1.180809,0.006 -1.771187,0.004 -0.4552,-0.003 -0.910244,0.004 -1.365277,0.0163 -0.763793,0.0306 -1.524857,0.10679 -2.280181,0.22519 -1.032659,0.16343 -2.070402,0.24443 -3.108407,0.36431 -0.949164,0.12151 -1.898841,0.17264 -2.856111,0.14612 -0.684969,-5.3e-4 -1.369925,0.008 -2.054866,0.0139 -0.38124,0.003 -0.761074,-0.01 -1.138084,-0.0734 -0.974259,-0.15594 -1.936416,-0.37868 -2.902524,-0.57718 -1.898822,-0.38362 -3.807954,-0.79277 -5.745806,-0.89692 -1.140175,0.0126 -2.283376,0.0566 -3.422406,0.025 -0.309289,-0.10231 -0.445707,-0.36106 -0.38511,-0.64819 -0.131059,-0.4187 -0.06524,-0.85884 -0.124211,-1.29304 -0.06726,-0.55126 -0.205689,-1.0858 -0.329449,-1.62649 0.0083,-0.56376 0.0014,-1.12753 0.0059,-1.69127 -0.0031,-0.55003 -0.0029,-1.09967 0.0013,-1.64966 0.0218,-0.52359 0.01975,-1.04785 0.05127,-1.5712 0.01725,-0.67214 -0.105207,-1.31162 -0.158433,-1.98102 -0.146628,-1.30613 -0.352156,-2.60445 -0.469723,-3.91384 -0.337235,-1.95524 -0.528184,-3.93653 -0.513258,-5.92233 -0.001,-1.49107 -0.0178,-2.98187 -0.03098,-4.47286 -0.0044,-0.84066 -0.01049,-1.68124 -0.0086,-2.52192 4.4e-5,-0.7511 2.2e-4,-1.5022 -7.93e-4,-2.25329 -0.0014,-0.70729 10e-4,-1.41477 0.0086,-2.12203 -0.0069,-1.06937 0.01368,-2.13915 -0.02951,-3.20825 -0.08319,-2.1874 -0.254514,-4.3689 -0.502035,-6.54404 -0.181738,-1.96102 -0.203012,-3.92012 -0.237071,-5.88786 0,0 5.003348,-2.54934 5.003348,-2.54934 z"
       inkscape:connector-curvature="0" />
    <path
       style="fill:#ec9aed;fill-opacity:1;stroke:#000000;stroke-width:2.64583325;stroke-miterlimit:4;stroke-dasharray:none;stroke-opacity:1"
       id="path831"
       d="m 21.99642,228.50701 c -0.02848,1.61568 0.09019,3.24097 0.269813,4.84686 0.17233,1.62316 0.476386,3.2304 0.769613,4.83549 0.319097,1.44928 0.603792,2.90377 0.824691,4.3709 0.143941,1.14968 0.405571,2.27904 0.57505,3.42459 0.126337,0.86159 0.346332,1.70161 0.458239,2.5658 0.107206,0.69484 0.106181,1.39933 0.132987,2.10009 0.01178,0.45172 6.35e-4,0.9037 0.01011,1.35535 0.0023,0.2714 0.0039,0.54287 -8.99e-4,0.81428 -8.47e-4,0.34392 -0.0047,0.6878 2.21e-4,1.0317 2.9e-5,0.24308 0.0051,0.48609 0.0033,0.72916 0.005,0.21388 -0.0062,0.428 0.0011,0.64177 5.55e-4,0.20852 2.12e-4,0.41717 -0.0041,0.62578 -0.0044,0.25952 0.0063,0.51844 5.82e-4,0.77788 0.03694,0.0865 -0.05894,0.59574 0.03304,0.30687 1.306483,-0.0386 2.621645,-0.0237 3.928017,0.0491 2.115555,0.13522 4.218662,0.40342 6.334178,0.5487 1.206336,0.0781 2.415029,0.10804 3.623691,0.10618 0.705342,-1.5e-4 1.410665,-0.006 2.116018,-0.006 0.759283,2.4e-4 1.518565,-5.3e-4 2.27784,0.002 0.834856,10e-4 1.669717,-2.6e-4 2.504575,-10e-4 0.870223,-0.0512 1.717532,0.16276 2.578045,0.2586 1.060412,0.10317 2.126821,0.11487 3.191343,0.12357 0.871143,0.007 1.742334,-10e-4 2.61349,-0.003 0.644597,-0.007 1.289246,-0.005 1.933866,-0.004 0.814692,0.003 1.629379,0.003 2.444073,0.007 0.907703,0.002 1.815476,-0.005 2.723142,-10e-4 0.766744,-0.007 1.533567,-0.003 2.300343,-0.004 0.780907,-0.003 1.561827,0.003 2.342721,5.3e-4 0.844236,0.003 1.688484,0.001 2.532724,5.3e-4 0.82948,-0.003 1.65894,0.002 2.488417,0.002 0.807543,-0.0339 1.602579,-0.2194 2.409452,-0.30187 0.781248,-0.033 1.540745,-0.0716 2.306521,-0.22512 0.820219,-0.12754 1.621383,-0.26956 2.45105,-0.27989 0.887957,0.006 1.77569,0.0304 2.663684,0.04 0.682607,0.004 1.365235,0.004 2.047865,0.003 0.49644,-0.002 0.992902,-0.003 1.48935,-0.002 0.548315,-0.001 1.096547,2.7e-4 1.644896,0.003 0.54012,-0.004 1.080259,-0.001 1.620375,-0.004 0.354975,0.003 0.709935,-0.006 1.064852,-0.006 2.220296,0.0174 1.693884,-0.63643 -4.230068,2.6567 0.228245,-0.22293 0.189764,-0.51925 0.193529,-0.82197 0.0038,-0.72418 -0.01529,-1.44798 0.03705,-2.17049 0.116485,-0.90521 0.225981,-1.80997 0.287147,-2.72075 0.04903,-0.74976 0.0395,-1.50126 0.05265,-2.25197 0.0029,-0.67013 -0.0123,-1.34039 -0.0087,-2.01047 -0.0073,-0.50182 -0.0038,-1.0035 -0.0059,-1.50532 -0.0036,-0.40293 0.0036,-0.80621 -0.0072,-1.20893 0.0035,-0.3162 -0.0038,-0.63216 0.0031,-0.94828 -0.0059,-0.40243 0.0053,-0.80483 0.0044,-1.20737 0.0453,-0.57987 -0.03734,-1.13701 -0.139478,-1.7048 -0.0842,-0.51974 -0.331449,-0.98693 -0.468349,-1.49165 -0.110363,-0.34442 -0.131088,-0.70554 -0.154155,-1.06347 -0.01333,-0.29081 -0.0029,-0.58234 -0.0021,-0.87346 0.0079,-0.3966 -5.29e-4,-0.79334 0.0056,-1.18985 -0.0013,-0.37159 -0.0064,-0.74336 -3.7e-5,-1.11496 0.05067,-0.38051 -0.0924,-0.70859 -0.192883,-1.06496 -0.120338,-0.38443 -0.159825,-0.78884 -0.175411,-1.18966 -0.01558,-0.36511 -0.01625,-0.73096 -0.01535,-1.09645 0.0029,-0.38429 0.0057,-0.76864 0.0034,-1.15295 0.0058,-0.43351 0.0013,-0.86702 0.0028,-1.30054 -0.01035,-0.32401 0.0045,-0.6486 -0.0077,-0.97245 0.0021,-0.28293 0.0032,-0.56585 0.0019,-0.84878 -0.0013,-0.24234 -0.0038,-0.48434 -0.0016,-0.72666 -0.0037,-0.25039 0.0087,-0.50137 -0.0024,-0.75159 -0.0016,-0.13066 0.0048,-0.2613 -0.0011,-0.39184 0,0 5.039802,-2.56791 5.039802,-2.56791 v 0 c -0.0056,0.13091 2.65e-4,0.26188 -0.0011,0.39289 -0.01058,0.25106 0.0011,0.50279 -0.0024,0.75401 0.0021,0.24285 -5.29e-4,0.4854 -0.0016,0.72827 -0.0013,0.28225 -2.25e-4,0.5645 0.0021,0.84674 -0.01185,0.3265 0.0024,0.65367 -0.0077,0.9803 0.0016,0.43281 -0.0031,0.86562 0.0024,1.29842 -0.0028,0.38412 -0.0011,0.76827 -2.17e-4,1.15238 -7.94e-4,0.36043 -0.0061,0.72068 -0.0013,1.08113 0.01122,0.36106 0.01606,0.72832 0.115168,1.07821 0.09801,0.3995 0.320437,0.76972 0.262514,1.19383 0.0065,0.37176 0.0011,0.7437 -2.64e-4,1.11545 0.0058,0.39593 -0.0034,0.79209 0.0019,1.18813 -0.0013,0.28486 0.0026,0.5697 -0.0019,0.85445 -0.0021,0.32287 0.0059,0.64966 0.08248,0.96486 0.114697,0.52427 0.390334,0.99708 0.468114,1.53066 0.112368,0.59373 0.260456,1.17695 0.202856,1.78735 -7.94e-4,0.40104 0.01035,0.80193 0.0044,1.20286 0.007,0.31507 -5.29e-4,0.62999 0.0031,0.94515 -0.01058,0.40514 -0.0038,0.8108 -0.0071,1.21613 -0.0019,0.50335 0.0019,1.00656 -0.0043,1.50991 0.0052,0.67319 -0.0072,1.34663 -0.0054,2.01984 0.0098,0.76097 -0.0049,1.52257 -0.03752,2.28289 -0.05579,0.91808 -0.158459,1.8304 -0.28784,2.74057 -0.08445,0.69853 -0.03664,1.39944 -0.025,2.10181 0.0077,0.36259 0.07417,0.7772 -0.043,1.11749 -3.903284,2.30495 -3.203466,2.96678 -5.508397,2.92797 -0.34907,-1.9e-4 -0.698191,-0.01 -1.047324,-0.006 -0.53652,-0.003 -1.073063,-2.7e-4 -1.609587,-0.004 -0.551143,0.003 -1.102173,0.004 -1.653281,0.003 -0.495327,0.002 -0.990687,0.002 -1.485995,-0.003 -0.676056,-0.003 -1.351995,-0.0115 -2.027899,-0.0255 -0.882698,-0.0137 -1.765898,-0.0375 -2.648577,-0.0119 -0.810136,0.0611 -1.612101,0.21548 -2.41399,0.34352 -0.770527,0.11694 -1.550884,0.0976 -2.323949,0.1969 -0.811374,0.10476 -1.619668,0.28203 -2.442054,0.24595 -0.831204,-3e-5 -1.662395,0.005 -2.493603,0.002 -0.844692,-10e-4 -1.689393,-0.003 -2.534083,5.3e-4 -0.781455,-0.003 -1.562936,0.003 -2.344402,5.3e-4 -0.763569,-1.1e-4 -1.527185,0.003 -2.290723,-0.003 -0.906698,0.004 -1.813499,-0.003 -2.720236,-10e-4 -0.820891,0.004 -1.641774,0.004 -2.46266,0.007 -0.64266,0.002 -1.285338,0.005 -1.92799,-8e-5 -0.866645,-5.3e-4 -1.733232,-0.006 -2.599803,-0.0174 -1.077691,-0.0225 -2.158064,-0.0427 -3.229835,-0.16702 -0.848387,-0.10632 -1.691635,-0.25481 -2.551049,-0.1968 -0.833819,-7.9e-4 -1.667637,-0.002 -2.501456,-7.9e-4 -0.762783,0.003 -1.525574,0.003 -2.288362,0.007 -0.703483,0.002 -1.406957,0.003 -2.110383,-0.008 -1.192049,-0.0325 -2.384338,-0.0756 -3.572182,-0.18653 -2.104715,-0.17581 -4.201406,-0.45909 -6.312678,-0.53957 -0.871764,-0.0207 -1.739538,-0.007 -2.611193,-0.009 -0.203011,-5.3e-4 -0.939016,-2.6e-4 -1.172549,-0.0333 -0.131189,-0.0185 -0.256133,-0.0679 -0.3842,-0.10185 -0.3024,-0.28399 -0.410537,-0.46186 -0.363061,-0.86256 -0.0058,-0.25964 0.0051,-0.51877 5.82e-4,-0.77849 -0.0043,-0.20722 -0.0046,-0.41449 -0.0041,-0.62164 0.0071,-0.21415 -0.0037,-0.42862 0.0011,-0.64287 -0.0019,-0.24419 0.0033,-0.48831 0.0033,-0.7325 0.0048,-0.34414 0.0011,-0.68826 4.24e-4,-1.03242 -0.0045,-0.2723 -0.0022,-0.54471 0.0025,-0.81695 0.01243,-0.45163 0.0058,-0.90381 0.01055,-1.35558 0.0085,-0.68634 -0.01333,-1.37412 -0.08094,-2.05736 -0.101754,-0.86492 -0.323832,-1.70332 -0.435945,-2.56536 -0.159235,-1.14872 -0.425961,-2.27845 -0.550221,-3.43256 -0.22363,-1.46276 -0.463114,-2.92177 -0.804947,-4.3635 -0.29021,-1.61865 -0.58935,-3.23809 -0.780711,-4.87193 -0.180888,-1.6155 -0.266009,-3.24407 -0.368432,-4.86576 0,0 4.996441,-2.54581 4.996441,-2.54581 z"
       inkscape:connector-curvature="0" />
    <path
       style="fill:#ec9aed;fill-opacity:1;stroke:#000000;stroke-width:2.64583325;stroke-miterlimit:4;stroke-dasharray:none;stroke-opacity:1"
       id="path833"
       d="m 70.876679,246.56101 c -1.802368,-0.0409 -3.605641,-0.0292 -5.408385,-0.0264 -1.582179,-0.002 -3.164319,0.009 -4.746477,0.0143 -1.017764,0.002 -2.035426,0.0113 -3.053196,0.01 -1.220047,-0.006 -2.440099,-0.0104 -3.660158,-0.0127 -1.35518,0.001 -2.71036,0.002 -4.06554,0.002 -0.999141,-0.001 -1.998181,0.01 -2.997293,0.015 -0.499975,0.008 -0.999778,0.007 -1.499783,0.004 -0.862454,-0.008 -1.724956,-0.009 -2.587455,-0.0123 -0.978879,5.2e-4 -1.957967,-0.006 -2.936785,0.007 -0.494252,2.6e-4 -0.988476,0.008 -1.482678,0.0109 -0.277405,0.002 -0.554706,0.002 -0.832133,-0.001 -0.49549,-0.001 -0.990967,-0.005 -1.486458,-0.007 -0.379145,0.003 -0.758349,0.009 -1.137473,0.01 -0.208502,1.3e-4 -0.416888,0.003 -0.625395,2.6e-4 0,0 4.570235,-3.32047 4.570235,-3.32047 v 0 c 0.208259,-0.003 0.416388,2e-5 0.624639,2.7e-4 0.370009,5.2e-4 0.7401,0.007 1.110131,0.01 0.502258,-0.002 1.004506,-0.006 1.506765,-0.007 0.278325,-0.003 0.556521,-0.003 0.834821,-0.001 0.484222,0.002 0.96847,0.0107 1.452745,0.0109 0.97201,0.0133 1.944312,0.007 2.916386,0.007 0.873802,-0.003 1.747604,-0.004 2.621364,-0.0123 0.496015,-0.003 0.991815,-0.004 1.487792,0.004 0.985329,0.005 1.970582,0.0162 2.955938,0.015 1.353008,5.3e-4 2.706016,10e-4 4.059023,0.002 1.231718,-0.002 2.463427,-0.006 3.695129,-0.0127 1.008819,-0.002 2.017527,0.007 3.026338,0.01 1.569083,0.005 3.138146,0.0162 4.70725,0.0143 1.826977,0.003 3.654433,0.0138 5.481058,-0.0264 0,0 -4.530405,3.29153 -4.530405,3.29153 z"
       inkscape:connector-curvature="0" />
    <path
       style="fill:#ec9aed;fill-opacity:1;stroke:#000000;stroke-width:2.64583325;stroke-miterlimit:4;stroke-dasharray:none;stroke-opacity:1"
       id="path835"
       d="m 69.826905,239.00604 c -1.39595,-0.007 -2.783567,-0.0133 -4.173741,-0.14675 -1.007676,-0.11592 -2.018567,-0.18992 -3.032136,-0.22277 -0.985525,0.0559 -1.931582,-0.18753 -2.882127,-0.40824 -0.975278,-0.23507 -1.972307,-0.22955 -2.924358,-0.5536 -0.670131,-0.17048 -1.362548,-0.18711 -2.049838,-0.19203 -0.538641,0.0157 -0.799941,0.0673 -1.291391,-0.17721 -0.318217,-0.20392 -0.504397,-0.24127 -0.871927,-0.21411 -0.452734,0.006 -0.905639,0.0756 -1.340188,-0.0636 -0.264941,-0.19611 -0.579398,-0.19517 -0.874491,-0.32302 -0.117141,-0.0508 -0.221189,-0.13188 -0.34273,-0.17093 -0.143553,-0.0461 -0.740008,-0.10776 -0.866323,-0.12253 -1.020985,-0.0784 -1.970458,-0.48443 -2.975033,-0.67382 -0.77959,-0.0883 -1.461307,-0.43276 -2.246064,-0.50155 -0.272277,-0.0925 -0.599469,0.0533 -0.869373,-0.0179 -0.136615,-0.036 -0.25295,-0.12629 -0.382857,-0.18182 -0.417838,-0.16116 -0.838399,-0.24271 -1.285785,-0.24154 -0.556887,0.0665 -1.051833,-0.25223 -1.574898,-0.35739 -0.420862,0.001 -0.821307,0.0477 -1.229799,-0.0606 -1.258983,-0.64927 0.553182,0.24644 -0.591974,-0.20545 -0.118647,-0.0468 -0.212336,-0.14403 -0.329324,-0.19485 -0.277,-0.12036 -0.62207,-0.1572 -0.917435,-0.21263 -0.244073,-0.10644 -0.557173,-0.14055 -0.778777,-0.30116 -0.09484,-0.0687 -0.145587,-0.23366 -0.262716,-0.23335 -0.03273,9e-5 -0.05452,0.0362 -0.08179,0.0543 0,0 4.649198,-3.19919 4.649198,-3.19919 v 0 c 0.349851,0.21637 0.660376,0.4361 1.094068,0.47837 0.614108,0.16415 1.190191,0.43381 1.810186,0.57476 0.433652,-5.3e-4 0.871175,-0.0161 1.289778,0.11941 0.480512,0.18328 0.981284,0.26958 1.496396,0.2636 0.473443,0.0643 0.94016,0.18583 1.385469,0.35976 0.371584,0.10354 0.791327,-0.001 1.169236,0.12022 0.758484,0.14815 1.472462,0.45886 2.244635,0.54893 0.980557,0.23409 1.941545,0.57263 2.954732,0.64634 0.731518,0.13334 1.411544,0.407 2.125753,0.60385 0.436446,-0.004 0.873249,-0.0241 1.309465,-0.003 0.358616,0.0522 0.639215,0.23622 0.973174,0.36179 0.375473,0.0848 0.782921,-0.026 1.165884,0.0343 0.713314,0.0344 1.426909,0.10544 2.109753,0.32853 0.952857,0.23863 1.942791,0.26947 2.892931,0.53019 0.935474,0.2054 1.874255,0.33909 2.835193,0.31662 1.009282,0.0473 2.01292,0.15722 3.016842,0.26904 1.396066,0.12111 2.795236,0.10208 4.195326,0.0685 0,0 -4.542946,3.30065 -4.542946,3.30065 z"
       inkscape:connector-curvature="0" />
    <path
       style="fill:#ec9aed;fill-opacity:1;stroke:#000000;stroke-width:2.64583325;stroke-miterlimit:4;stroke-dasharray:none;stroke-opacity:1"
       id="path837"
       d="m 70.434613,228.89529 c -2.302679,-1.08244 -4.446301,-2.49885 -6.557618,-3.91424 -1.763528,-1.23379 -3.528388,-2.46891 -5.242177,-3.77158 -0.336507,-0.18649 -0.583924,-0.53804 -0.933436,-0.7061 -0.21975,-0.10568 -0.524669,-0.10173 -0.759389,-0.17579 -0.681421,-0.34163 -1.450401,-0.43062 -2.183643,-0.62367 -0.845275,-0.3619 -1.770364,-0.47841 -2.624143,-0.81166 -0.755819,-0.42605 -1.610955,-0.63237 -2.341668,-1.09461 -0.689991,-0.32937 -1.238843,-0.9006 -1.941764,-1.21986 -0.515755,-0.27071 -0.970079,-0.59462 -1.424162,-0.9573 -0.12818,-0.12063 -0.280649,-0.45749 -0.470866,-0.50515 -0.329425,-0.0825 0.281355,0.34321 -0.250087,-0.0931 -0.108347,-0.20755 -0.359359,-0.20902 -0.520263,-0.33349 -0.366279,-0.28332 -0.02926,-0.14336 -0.311571,-0.24265 -0.528571,-0.37696 -1.130318,-0.63645 -1.71568,-0.93605 -0.77938,-0.30995 -1.434518,-0.81275 -2.161357,-1.21566 -0.297114,-0.13621 -0.368112,-0.19049 -0.528632,-0.48689 0,0 5.05492,-2.55784 5.05492,-2.55784 v 0 c -0.32625,-0.48924 -6.1e-5,-0.0774 0.191315,-0.0127 0.689337,0.43232 1.357481,0.89598 2.11732,1.20375 0.598604,0.30502 1.219755,0.56391 1.776894,0.94286 0.273669,0.21136 0.580048,0.36547 0.846452,0.5876 0.322424,0.10393 0.534464,0.42171 0.750769,0.66337 0.400878,0.35544 0.876591,0.59087 1.329166,0.8725 0.668422,0.38844 1.267555,0.88379 1.954837,1.23882 0.738584,0.37459 1.519629,0.66294 2.26977,1.01296 0.868074,0.2517 1.741617,0.48492 2.601722,0.76418 0.75406,0.16368 1.497785,0.35661 2.221275,0.62912 0.705443,0.18577 1.236604,0.5943 1.758394,1.09628 1.64423,1.34275 3.346231,2.6118 5.098823,3.8102 2.122445,1.39821 4.258241,2.85019 6.653381,3.74109 0,0 -4.658582,3.09559 -4.658582,3.09559 z"
       inkscape:connector-curvature="0" />
    <path
       style="fill:#ec9aed;fill-opacity:1;stroke:#000000;stroke-width:2.64583325;stroke-miterlimit:4;stroke-dasharray:none;stroke-opacity:1"
       id="path839"
       d="m 75.08675,219.31974 c -0.375393,-0.52042 -0.904221,-0.90303 -1.341678,-1.36276 -0.204288,-0.21469 -0.363262,-0.46835 -0.546095,-0.70158 -0.484105,-0.71642 -0.907447,-1.46754 -1.407303,-2.1732 -0.748096,-1.25027 -1.629312,-2.41228 -2.385769,-3.65644 -0.906669,-1.6022 -1.839862,-3.18106 -2.823813,-4.73754 -0.830752,-1.18227 -1.43419,-2.49971 -2.202275,-3.71988 -0.567185,-1.21738 -1.328671,-2.32868 -2.081326,-3.43685 -1.226543,-1.59243 -2.449008,-3.18698 -3.772916,-4.70065 -1.175534,-1.25905 -2.206734,-2.64699 -3.393046,-3.8938 -0.336365,-0.41425 -0.674746,-0.80725 -0.97127,-1.24872 -0.06656,-0.0823 -0.02643,-0.025 -0.09561,-0.18672 0,0 4.962374,-2.71505 4.962374,-2.71505 v 0 c -0.006,2.5e-4 -0.01199,5.3e-4 -0.01796,8e-4 0.01373,0.0236 0.02744,0.0473 0.04116,0.0709 0.229777,0.43434 0.580263,0.77576 0.848132,1.18738 1.129133,1.28677 2.131568,2.70698 3.316184,3.95557 1.331479,1.53607 2.604498,3.12036 3.849619,4.72694 0.773367,1.10345 1.570479,2.20635 2.118588,3.44377 0.762291,1.22433 1.351523,2.5458 2.165204,3.73979 0.979178,1.56141 1.903328,3.1494 2.834177,4.73919 0.75874,1.22738 1.647994,2.36697 2.408711,3.59316 0.510905,0.68997 0.947013,1.42294 1.411983,2.14352 0.571553,0.71753 1.223984,1.34757 1.870374,1.99847 0,0 -4.787437,2.93374 -4.787437,2.93374 z"
       inkscape:connector-curvature="0" />
    <path
       style="fill:#ec9aed;fill-opacity:1;stroke:#000000;stroke-width:2.64583325;stroke-miterlimit:4;stroke-dasharray:none;stroke-opacity:1"
       id="path863"
       d="m 91.913428,268.41526 c 0.764435,-0.88367 1.519018,-1.77687 2.264871,-2.67642 0.65787,-0.82808 1.274858,-1.68474 1.872789,-2.5564 0.447191,-0.60137 0.700601,-1.3072 1.033391,-1.9714 0.289359,-0.49842 0.543746,-1.01601 0.83719,-1.51198 0.222051,-0.36877 0.425937,-0.74594 0.680146,-1.09418 0.240178,-0.31475 0.518767,-0.59693 0.797487,-0.87706 0.41064,-0.38489 0.788028,-0.80027 1.165758,-1.21659 0.33232,-0.37778 0.62974,-0.7838 0.94478,-1.17533 0.28539,-0.36653 0.57682,-0.72493 0.84035,-1.10799 0.30794,-0.43429 0.62653,-0.86007 0.96522,-1.27077 0.37554,-0.44588 0.71103,-0.92407 1.05011,-1.39787 0.36769,-0.47283 0.62982,-1.00518 0.90209,-1.53486 0.22607,-0.41284 0.4579,-0.82232 0.68439,-1.23493 0.13677,-0.28632 0.35253,-0.53097 0.48347,-0.81784 0.77111,-1.33591 2.11039,-1.99418 3.83034,-2.44761 0.31898,0.28289 0.27999,0.70011 0.27775,1.08788 -0.002,0.36601 -0.009,0.73198 -0.0123,1.09798 -0.0335,1.77257 -0.0319,3.54553 -0.0392,5.31833 0.008,2.07641 -0.25434,4.14094 -0.3825,6.21139 -0.11075,1.69897 -0.28879,3.38771 -0.50355,5.07555 -0.11639,1.09105 -0.12712,2.18808 -0.29389,3.27359 -0.1429,0.94264 -0.10395,1.89775 -0.15932,2.84644 -0.0988,0.91526 -0.12563,1.83693 -0.21781,2.7523 -0.0943,0.66808 -0.18258,1.33628 -0.22925,2.00952 -0.007,0.44222 -0.0163,0.86909 -0.12912,1.29707 -0.0954,0.33971 -0.12309,0.6912 -0.17092,1.0391 -0.12671,0.40892 -0.23372,0.8058 -0.26393,1.23433 -0.0289,0.48705 0.009,0.97536 -0.0243,1.46174 -0.0373,0.31673 -0.15051,0.61871 -0.18738,0.93483 -0.10676,0.066 -0.0823,0.19125 -0.072,0.29872 0.003,0.0556 0.009,0.11078 0.0148,0.16606 0,0 -3.54727,1.8562 -3.54727,1.8562 v 0 c -0.006,-0.0569 -0.01,-0.11402 -0.0119,-0.17125 -0.0189,-0.17845 -0.0535,-0.35666 -0.0361,-0.53685 0.0277,-0.005 0.0675,0.007 0.0832,-0.0165 0.0742,-0.11123 0.0928,-0.64671 0.1942,-0.77693 0.10476,-0.46679 0.008,-0.95555 0.0411,-1.43061 0.0117,-0.44578 0.0388,-0.878 0.23185,-1.28756 0.10042,-0.33999 0.0536,-0.70888 0.16438,-1.0506 0.0346,-0.15756 0.1204,-0.32756 0.14699,-0.4815 0.0427,-0.24714 -0.0168,-0.51398 0.0273,-0.76181 0.0417,-0.68358 0.12514,-1.36248 0.23992,-2.03776 0.12281,-0.90811 0.12308,-1.82963 0.23676,-2.7397 0.0727,-0.95867 0.0191,-1.92505 0.14328,-2.88125 0.19408,-1.08548 0.21552,-2.18113 0.32965,-3.2758 0.38857,-2.93298 -0.23498,1.70014 0.22074,-1.42772 0.17611,-1.2088 0.19878,-2.43481 0.33612,-3.64787 0.15265,-2.06129 0.40158,-4.12181 0.39629,-6.18958 -0.004,-1.76232 0.005,-3.52478 -0.0214,-5.28695 -0.001,-0.14394 -0.0716,-1.54159 -0.0409,-1.63408 0.0197,-0.0593 0.18162,0.19202 0.11828,0.1455 -1.15727,0.68848 -0.0756,0.0447 3.26544,-1.89662 0.0549,-0.0324 -0.13585,0.004 -0.18653,0.0423 -0.0595,0.0454 -0.0871,0.20989 -0.10021,0.2594 -0.19559,0.13229 -0.34169,0.57241 -0.52337,0.76084 -0.22345,0.41776 -0.45019,0.83115 -0.70758,1.22858 -0.25877,0.5477 -0.51506,1.09855 -0.88048,1.58304 -0.31626,0.50161 -0.69945,0.95693 -1.02588,1.45072 -0.37337,0.37075 -0.65892,0.80804 -0.97913,1.22357 -0.2758,0.38022 -0.5108,0.77441 -0.83241,1.11541 -0.28884,0.41859 -0.62756,0.80048 -0.9426,1.20144 -0.34987,0.44206 -0.74468,0.84531 -1.14535,1.24269 -0.27283,0.27395 -0.54916,0.54474 -0.80919,0.83106 -0.27658,0.32834 -0.52048,0.67602 -0.70774,1.06436 -0.32781,0.47494 -0.57417,0.99658 -0.85017,1.50189 -0.43287,0.62808 -0.58579,1.3938 -1.041368,2.01272 -0.63607,0.85759 -1.215675,1.75757 -1.886441,2.59119 -0.728303,0.89547 -1.49551,1.75939 -2.213356,2.66358 0,0 -3.645453,1.54289 -3.645453,1.54289 z"
       inkscape:connector-curvature="0" />
  </g>
</svg>
